<mxfile host="app.diagrams.net" modified="2021-04-15T02:07:04.049Z" agent="5.0 (X11; Linux x86_64) AppleWebKit/537.36 (KHTML, like Gecko) Chrome/89.0.4389.114 Safari/537.36" etag="w6vgiFESFbpiEEiyzLfe" version="14.6.0" type="github">
  <diagram name="Page-1" id="c37626ed-c26b-45fb-9056-f9ebc6bb27b6">
    <mxGraphModel dx="1318" dy="1629" grid="1" gridSize="10" guides="1" tooltips="1" connect="1" arrows="1" fold="1" page="1" pageScale="1" pageWidth="1100" pageHeight="850" background="#ffffff" math="0" shadow="0">
      <root>
        <mxCell id="0" />
        <mxCell id="1" parent="0" />
        <mxCell id="UA0cT1PieCpgH8twyEf7-35" value="" style="ellipse;shape=cloud;whiteSpace=wrap;html=1;strokeColor=#000000;" vertex="1" parent="1">
          <mxGeometry x="840" y="-40" width="680" height="520" as="geometry" />
        </mxCell>
        <mxCell id="1c7a67bf8fd3230f-83" value="" style="whiteSpace=wrap;html=1;rounded=0;shadow=0;comic=0;strokeWidth=1;fontFamily=Verdana;fontSize=14;fillColor=#ffcd28;verticalAlign=top;fontStyle=1;strokeColor=#d79b00;gradientColor=#ffffff;" parent="1" vertex="1">
          <mxGeometry x="460" y="-60" width="1540" height="1190" as="geometry" />
        </mxCell>
        <mxCell id="1c7a67bf8fd3230f-15" value="&lt;font style=&quot;font-size: 21px&quot;&gt;Internet&lt;/font&gt;" style="ellipse;shape=cloud;whiteSpace=wrap;html=1;rounded=0;shadow=0;comic=0;strokeWidth=1;fontFamily=Verdana;fontSize=12;" parent="1" vertex="1">
          <mxGeometry x="1140" y="70" width="120" height="80" as="geometry" />
        </mxCell>
        <mxCell id="UA0cT1PieCpgH8twyEf7-2" value="" style="shape=mxgraph.cisco.routers.atm_router;html=1;pointerEvents=1;dashed=0;fillColor=#e51400;strokeColor=#B20000;strokeWidth=2;verticalLabelPosition=bottom;verticalAlign=top;align=center;outlineConnect=0;fontColor=#ffffff;" vertex="1" parent="1">
          <mxGeometry x="1161" y="380" width="78" height="53" as="geometry" />
        </mxCell>
        <mxCell id="UA0cT1PieCpgH8twyEf7-3" value="" style="shape=mxgraph.cisco.switches.atm_fast_gigabit_etherswitch;html=1;pointerEvents=1;dashed=0;fillColor=#1ba1e2;strokeColor=#006EAF;strokeWidth=2;verticalLabelPosition=bottom;verticalAlign=top;align=center;outlineConnect=0;fontColor=#ffffff;" vertex="1" parent="1">
          <mxGeometry x="1340" y="490" width="64" height="64" as="geometry" />
        </mxCell>
        <mxCell id="UA0cT1PieCpgH8twyEf7-4" value="" style="shape=mxgraph.cisco.switches.atm_fast_gigabit_etherswitch;html=1;pointerEvents=1;dashed=0;fillColor=#1ba1e2;strokeColor=#006EAF;strokeWidth=2;verticalLabelPosition=bottom;verticalAlign=top;align=center;outlineConnect=0;fontColor=#ffffff;" vertex="1" parent="1">
          <mxGeometry x="1000" y="490" width="64" height="64" as="geometry" />
        </mxCell>
        <mxCell id="UA0cT1PieCpgH8twyEf7-6" value="" style="shape=mxgraph.cisco.computers_and_peripherals.workstation;html=1;pointerEvents=1;dashed=0;strokeWidth=2;verticalLabelPosition=bottom;verticalAlign=top;align=center;outlineConnect=0;fillColor=#fad9d5;strokeColor=#ae4132;" vertex="1" parent="1">
          <mxGeometry x="880" y="640" width="83" height="62" as="geometry" />
        </mxCell>
        <mxCell id="UA0cT1PieCpgH8twyEf7-7" value="" style="shape=mxgraph.cisco.computers_and_peripherals.workstation;html=1;pointerEvents=1;dashed=0;fillColor=#d0cee2;strokeColor=#56517e;strokeWidth=2;verticalLabelPosition=bottom;verticalAlign=top;align=center;outlineConnect=0;" vertex="1" parent="1">
          <mxGeometry x="1047" y="640" width="83" height="62" as="geometry" />
        </mxCell>
        <mxCell id="UA0cT1PieCpgH8twyEf7-8" value="" style="shape=mxgraph.cisco.computers_and_peripherals.workstation;html=1;pointerEvents=1;dashed=0;fillColor=#fad9d5;strokeColor=#ae4132;strokeWidth=2;verticalLabelPosition=bottom;verticalAlign=top;align=center;outlineConnect=0;" vertex="1" parent="1">
          <mxGeometry x="1271.5" y="640" width="83" height="62" as="geometry" />
        </mxCell>
        <mxCell id="UA0cT1PieCpgH8twyEf7-9" value="" style="shape=mxgraph.cisco.computers_and_peripherals.workstation;html=1;pointerEvents=1;dashed=0;fillColor=#d0cee2;strokeColor=#56517e;strokeWidth=2;verticalLabelPosition=bottom;verticalAlign=top;align=center;outlineConnect=0;" vertex="1" parent="1">
          <mxGeometry x="1438.5" y="640" width="83" height="62" as="geometry" />
        </mxCell>
        <mxCell id="UA0cT1PieCpgH8twyEf7-16" value="" style="endArrow=classic;startArrow=classic;html=1;strokeColor=#000000;" edge="1" parent="1" source="UA0cT1PieCpgH8twyEf7-4" target="UA0cT1PieCpgH8twyEf7-2">
          <mxGeometry width="50" height="50" relative="1" as="geometry">
            <mxPoint x="1220" y="570" as="sourcePoint" />
            <mxPoint x="1270" y="520" as="targetPoint" />
          </mxGeometry>
        </mxCell>
        <mxCell id="UA0cT1PieCpgH8twyEf7-17" value="" style="endArrow=classic;startArrow=classic;html=1;strokeColor=#000000;" edge="1" parent="1" source="UA0cT1PieCpgH8twyEf7-3" target="UA0cT1PieCpgH8twyEf7-2">
          <mxGeometry width="50" height="50" relative="1" as="geometry">
            <mxPoint x="1220" y="570" as="sourcePoint" />
            <mxPoint x="1270" y="520" as="targetPoint" />
          </mxGeometry>
        </mxCell>
        <mxCell id="UA0cT1PieCpgH8twyEf7-18" value="" style="endArrow=classic;startArrow=classic;html=1;strokeColor=#000000;" edge="1" parent="1" source="UA0cT1PieCpgH8twyEf7-6" target="UA0cT1PieCpgH8twyEf7-4">
          <mxGeometry width="50" height="50" relative="1" as="geometry">
            <mxPoint x="1220" y="570" as="sourcePoint" />
            <mxPoint x="1270" y="520" as="targetPoint" />
            <Array as="points" />
          </mxGeometry>
        </mxCell>
        <mxCell id="UA0cT1PieCpgH8twyEf7-19" value="" style="endArrow=classic;startArrow=classic;html=1;strokeColor=#000000;" edge="1" parent="1" source="UA0cT1PieCpgH8twyEf7-7" target="UA0cT1PieCpgH8twyEf7-4">
          <mxGeometry width="50" height="50" relative="1" as="geometry">
            <mxPoint x="1220" y="570" as="sourcePoint" />
            <mxPoint x="1270" y="520" as="targetPoint" />
          </mxGeometry>
        </mxCell>
        <mxCell id="UA0cT1PieCpgH8twyEf7-20" value="" style="endArrow=classic;startArrow=classic;html=1;strokeColor=#000000;" edge="1" parent="1" source="UA0cT1PieCpgH8twyEf7-8" target="UA0cT1PieCpgH8twyEf7-3">
          <mxGeometry width="50" height="50" relative="1" as="geometry">
            <mxPoint x="1220" y="570" as="sourcePoint" />
            <mxPoint x="1270" y="520" as="targetPoint" />
          </mxGeometry>
        </mxCell>
        <mxCell id="UA0cT1PieCpgH8twyEf7-21" value="" style="endArrow=classic;startArrow=classic;html=1;strokeColor=#000000;" edge="1" parent="1" source="UA0cT1PieCpgH8twyEf7-9" target="UA0cT1PieCpgH8twyEf7-3">
          <mxGeometry width="50" height="50" relative="1" as="geometry">
            <mxPoint x="1220" y="570" as="sourcePoint" />
            <mxPoint x="1270" y="520" as="targetPoint" />
          </mxGeometry>
        </mxCell>
        <mxCell id="UA0cT1PieCpgH8twyEf7-23" value="" style="shape=mxgraph.cisco.security.firewall;html=1;pointerEvents=1;dashed=0;fillColor=#a20025;strokeColor=#6F0000;strokeWidth=2;verticalLabelPosition=bottom;verticalAlign=top;align=center;outlineConnect=0;fontColor=#ffffff;" vertex="1" parent="1">
          <mxGeometry x="1185.5" y="220" width="29" height="67" as="geometry" />
        </mxCell>
        <mxCell id="UA0cT1PieCpgH8twyEf7-24" value="" style="endArrow=classic;startArrow=classic;html=1;strokeColor=#000000;entryX=0.5;entryY=1;entryDx=0;entryDy=0;entryPerimeter=0;" edge="1" parent="1" source="UA0cT1PieCpgH8twyEf7-2" target="UA0cT1PieCpgH8twyEf7-23">
          <mxGeometry width="50" height="50" relative="1" as="geometry">
            <mxPoint x="1220" y="420" as="sourcePoint" />
            <mxPoint x="1270" y="370" as="targetPoint" />
          </mxGeometry>
        </mxCell>
        <mxCell id="UA0cT1PieCpgH8twyEf7-25" value="" style="endArrow=classic;startArrow=classic;html=1;strokeColor=#000000;" edge="1" parent="1" source="UA0cT1PieCpgH8twyEf7-23" target="1c7a67bf8fd3230f-15">
          <mxGeometry width="50" height="50" relative="1" as="geometry">
            <mxPoint x="1220" y="420" as="sourcePoint" />
            <mxPoint x="1270" y="370" as="targetPoint" />
          </mxGeometry>
        </mxCell>
        <mxCell id="UA0cT1PieCpgH8twyEf7-26" value="Firewall" style="text;strokeColor=none;fillColor=none;html=1;fontSize=24;fontStyle=1;verticalAlign=middle;align=center;" vertex="1" parent="1">
          <mxGeometry x="1220" y="230" width="100" height="40" as="geometry" />
        </mxCell>
        <mxCell id="UA0cT1PieCpgH8twyEf7-27" value="Router" style="text;strokeColor=none;fillColor=none;html=1;fontSize=24;fontStyle=1;verticalAlign=middle;align=center;" vertex="1" parent="1">
          <mxGeometry x="1230" y="370" width="100" height="40" as="geometry" />
        </mxCell>
        <mxCell id="UA0cT1PieCpgH8twyEf7-28" value="Switch" style="text;strokeColor=none;fillColor=none;html=1;fontSize=24;fontStyle=1;verticalAlign=middle;align=center;" vertex="1" parent="1">
          <mxGeometry x="1404" y="502" width="110" height="40" as="geometry" />
        </mxCell>
        <mxCell id="UA0cT1PieCpgH8twyEf7-29" value="Switch" style="text;strokeColor=none;fillColor=none;html=1;fontSize=24;fontStyle=1;verticalAlign=middle;align=center;" vertex="1" parent="1">
          <mxGeometry x="890" y="502" width="100" height="40" as="geometry" />
        </mxCell>
        <mxCell id="UA0cT1PieCpgH8twyEf7-30" value="Host 01&lt;br&gt;VLAN 10&lt;br&gt;IP 10.0.10.1" style="text;strokeColor=none;fillColor=none;html=1;fontSize=24;fontStyle=1;verticalAlign=middle;align=center;" vertex="1" parent="1">
          <mxGeometry x="863" y="740" width="100" height="40" as="geometry" />
        </mxCell>
        <mxCell id="UA0cT1PieCpgH8twyEf7-31" value="Host 02&lt;br&gt;VLAN 20&lt;br&gt;IP 10.0.20.1" style="text;strokeColor=none;fillColor=none;html=1;fontSize=24;fontStyle=1;verticalAlign=middle;align=center;" vertex="1" parent="1">
          <mxGeometry x="1030" y="740" width="100" height="40" as="geometry" />
        </mxCell>
        <mxCell id="UA0cT1PieCpgH8twyEf7-32" value="Host 03&lt;br&gt;VLAN 10&lt;br&gt;IP 10.0.10.2" style="text;strokeColor=none;fillColor=none;html=1;fontSize=24;fontStyle=1;verticalAlign=middle;align=center;" vertex="1" parent="1">
          <mxGeometry x="1263" y="740" width="100" height="40" as="geometry" />
        </mxCell>
        <mxCell id="UA0cT1PieCpgH8twyEf7-33" value="Host 04&lt;br&gt;VLAN 20&lt;br&gt;IP 10.0.20.2" style="text;strokeColor=none;fillColor=none;html=1;fontSize=24;fontStyle=1;verticalAlign=middle;align=center;" vertex="1" parent="1">
          <mxGeometry x="1421.5" y="740" width="100" height="40" as="geometry" />
        </mxCell>
        <mxCell id="UA0cT1PieCpgH8twyEf7-38" value="" style="whiteSpace=wrap;html=1;rounded=0;shadow=0;comic=0;strokeWidth=1;fontFamily=Verdana;fontSize=14;verticalAlign=top;fontStyle=1;fillColor=none;" vertex="1" parent="1">
          <mxGeometry x="1064" y="20" width="310" height="330" as="geometry" />
        </mxCell>
        <mxCell id="UA0cT1PieCpgH8twyEf7-42" style="edgeStyle=orthogonalEdgeStyle;rounded=0;orthogonalLoop=1;jettySize=auto;html=1;strokeColor=#000000;" edge="1" parent="1" source="UA0cT1PieCpgH8twyEf7-40" target="UA0cT1PieCpgH8twyEf7-38">
          <mxGeometry relative="1" as="geometry">
            <Array as="points">
              <mxPoint x="790" y="210" />
            </Array>
          </mxGeometry>
        </mxCell>
        <mxCell id="UA0cT1PieCpgH8twyEf7-40" value="Seria só um exemplo se fosse para&amp;nbsp;&lt;br&gt;a internet, necessariamente precisamos &lt;br&gt;de segurança na rede." style="text;strokeColor=none;fillColor=none;html=1;fontSize=24;fontStyle=1;verticalAlign=middle;align=center;" vertex="1" parent="1">
          <mxGeometry x="740" y="70" width="100" height="40" as="geometry" />
        </mxCell>
      </root>
    </mxGraphModel>
  </diagram>
</mxfile>
